<svg width="144" height="144" viewBox="0 0 144 144" fill="none" xmlns="http://www.w3.org/2000/svg">
<path d="M72 3L88.165 52.7508H140.476L98.1555 83.4984L114.321 133.249L72 102.502L29.6795 133.249L45.8445 83.4984L3.52393 52.7508H55.835L72 3Z" fill="#D9D9D9"/>
<path d="M60.1449 65.3636C60.0383 64.464 59.6063 63.7656 58.8487 63.2685C58.0911 62.7713 57.1619 62.5227 56.0611 62.5227C55.2561 62.5227 54.5518 62.6529 53.9481 62.9134C53.3504 63.1738 52.8828 63.5318 52.5454 63.9876C52.214 64.4433 52.0483 64.9612 52.0483 65.5412C52.0483 66.0265 52.1637 66.4438 52.3945 66.793C52.6313 67.1362 52.9331 67.4233 53.3001 67.6541C53.667 67.879 54.0517 68.0655 54.4542 68.2134C54.8566 68.3555 55.2266 68.4709 55.5639 68.5597L57.4105 69.0568C57.884 69.1811 58.4107 69.3527 58.9908 69.5717C59.5767 69.7907 60.136 70.0896 60.6687 70.4684C61.2073 70.8413 61.6512 71.3207 62.0003 71.9066C62.3495 72.4925 62.5241 73.2116 62.5241 74.0639C62.5241 75.0464 62.2667 75.9342 61.7518 76.7273C61.2428 77.5204 60.497 78.1507 59.5146 78.6183C58.538 79.0858 57.3513 79.3196 55.9545 79.3196C54.6525 79.3196 53.525 79.1095 52.5721 78.6893C51.6251 78.2691 50.8794 77.6831 50.3349 76.9315C49.7963 76.1798 49.4915 75.3068 49.4204 74.3125H51.6932C51.7524 74.9991 51.9832 75.5672 52.3856 76.017C52.794 76.4609 53.3089 76.7924 53.9304 77.0114C54.5578 77.2244 55.2325 77.331 55.9545 77.331C56.795 77.331 57.5496 77.1948 58.2184 76.9226C58.8872 76.6444 59.4169 76.2597 59.8075 75.7685C60.1981 75.2713 60.3935 74.6913 60.3935 74.0284C60.3935 73.4247 60.2248 72.9335 59.8874 72.5547C59.5501 72.1759 59.1062 71.8681 58.5557 71.6314C58.0053 71.3947 57.4105 71.1875 56.7713 71.0099L54.5341 70.3707C53.1136 69.9624 51.9891 69.3794 51.1605 68.6218C50.3319 67.8642 49.9176 66.8729 49.9176 65.6477C49.9176 64.6297 50.1928 63.742 50.7432 62.9844C51.2996 62.2209 52.0453 61.629 52.9805 61.2088C53.9215 60.7827 54.9721 60.5696 56.1321 60.5696C57.304 60.5696 58.3456 60.7797 59.2571 61.1999C60.1686 61.6142 60.8906 62.1824 61.4233 62.9045C61.9619 63.6265 62.246 64.4463 62.2756 65.3636H60.1449Z" fill="black"/>
<path d="M72.7492 73.3182H75.164L77.1881 75.9815L77.7208 76.6918L80.7393 80.7045H78.3245L76.3358 78.0412L75.8387 77.3665L72.7492 73.3182ZM81.485 69.9091C81.485 71.8267 81.1388 73.4839 80.4463 74.8807C79.7538 76.2775 78.8039 77.3546 77.5965 78.1122C76.3891 78.8698 75.0101 79.2486 73.4594 79.2486C71.9088 79.2486 70.5297 78.8698 69.3223 78.1122C68.115 77.3546 67.165 76.2775 66.4726 74.8807C65.7801 73.4839 65.4339 71.8267 65.4339 69.9091C65.4339 67.9915 65.7801 66.3343 66.4726 64.9375C67.165 63.5407 68.115 62.4635 69.3223 61.706C70.5297 60.9484 71.9088 60.5696 73.4594 60.5696C75.0101 60.5696 76.3891 60.9484 77.5965 61.706C78.8039 62.4635 79.7538 63.5407 80.4463 64.9375C81.1388 66.3343 81.485 67.9915 81.485 69.9091ZM79.3543 69.9091C79.3543 68.3348 79.0909 67.006 78.5642 65.9229C78.0433 64.8398 77.3361 64.0201 76.4424 63.4638C75.5546 62.9074 74.5603 62.6293 73.4594 62.6293C72.3586 62.6293 71.3613 62.9074 70.4676 63.4638C69.5798 64.0201 68.8725 64.8398 68.3458 65.9229C67.825 67.006 67.5645 68.3348 67.5645 69.9091C67.5645 71.4834 67.825 72.8121 68.3458 73.8952C68.8725 74.9783 69.5798 75.7981 70.4676 76.3544C71.3613 76.9107 72.3586 77.1889 73.4594 77.1889C74.5603 77.1889 75.5546 76.9107 76.4424 76.3544C77.3361 75.7981 78.0433 74.9783 78.5642 73.8952C79.0909 72.8121 79.3543 71.4834 79.3543 69.9091Z" fill="black"/>
<path d="M85.187 79V60.8182H87.3888V77.0469H95.8405V79H85.187Z" fill="black"/>
</svg>
